<?xml version="1.0" standalone="no"?>
<!DOCTYPE svg PUBLIC "-//W3C//DTD SVG 20010904//EN"
 "http://www.w3.org/TR/2001/REC-SVG-20010904/DTD/svg10.dtd">
<svg version="1.0" xmlns="http://www.w3.org/2000/svg"
 width="128.000000pt" height="128.000000pt" viewBox="0 0 128.000000 128.000000"
 preserveAspectRatio="xMidYMid meet">

<g transform="translate(0.000000,128.000000) scale(0.100000,-0.100000)"
fill="#427cf0" stroke="none">
<path d="M613 1230 c-12 -5 -41 -23 -64 -40 -40 -29 -48 -31 -120 -28 -90 3
-98 -2 -140 -84 -25 -50 -37 -62 -87 -87 -82 -41 -87 -50 -84 -139 3 -73 2
-77 -34 -129 -47 -69 -47 -97 0 -166 36 -52 37 -56 34 -129 -3 -89 2 -98 84
-139 50 -25 62 -37 87 -87 41 -82 50 -87 139 -84 73 3 77 2 129 -34 32 -22 66
-37 83 -37 17 0 51 15 83 37 52 36 56 37 129 34 89 -3 98 2 139 84 25 50 37
62 87 87 82 41 87 50 84 139 -3 73 -2 77 34 129 22 32 37 66 37 83 0 17 -15
51 -37 83 -36 52 -37 56 -34 129 3 89 -2 98 -84 139 -50 25 -62 37 -87 87 -41
82 -50 87 -139 84 -72 -3 -78 -1 -126 31 -60 41 -83 49 -113 37z m296 -416
c12 -15 21 -36 21 -48 0 -13 -55 -76 -158 -178 -131 -132 -163 -158 -187 -158
-23 0 -48 19 -132 103 -64 64 -103 111 -103 124 0 33 38 73 69 73 20 0 43 -17
91 -65 35 -36 69 -65 75 -65 6 0 64 54 130 120 132 132 155 143 194 94z"/>
</g>
</svg>
